<svg xmlns="http://www.w3.org/2000/svg" xmlns:xlink="http://www.w3.org/1999/xlink" width="19.234" height="19.239" viewBox="0 0 19.234 19.239">
  <defs>
    <linearGradient id="linear-gradient" x1="0.5" x2="0.5" y2="1" gradientUnits="objectBoundingBox">
      <stop offset="0" stop-color="#c7aa35"/>
      <stop offset="1" stop-color="#dc9435"/>
    </linearGradient>
  </defs>
  <g id="Group_1334" data-name="Group 1334" transform="translate(-97 -225.901)">
    <g id="Group_1331" data-name="Group 1331" transform="translate(-2.076 8.029)">
      <path id="Path_2787" data-name="Path 2787" d="M102.473,234.938a1.738,1.738,0,0,0-.228-.338,9.567,9.567,0,0,1-.944-13.231,12.165,12.165,0,0,1,.944-.975.461.461,0,0,0,.177-.381A1.158,1.158,0,0,1,104.1,218.9a.4.4,0,0,0,.3-.024,9.659,9.659,0,0,1,8.5-.037.536.536,0,0,0,.5.031,1.133,1.133,0,0,1,1.563,1.064.63.63,0,0,0,.245.518,9.536,9.536,0,0,1,1.139,12.823,14.273,14.273,0,0,1-1.225,1.33.453.453,0,0,0-.156.366,1.159,1.159,0,0,1-1.675,1.11.4.4,0,0,0-.3.025,9.654,9.654,0,0,1-8.5.037.535.535,0,0,0-.5-.031A1.1,1.1,0,0,1,102.473,234.938Zm-2.46-7.3c.032.352.049.838.124,1.315a8.174,8.174,0,0,0,2.744,4.934.24.24,0,0,0,.29.058,1.071,1.071,0,0,1,1.134.2.422.422,0,0,0,.248.1q4.14.008,8.279,0a.379.379,0,0,0,.23-.084,1.121,1.121,0,0,1,1.155-.225.318.318,0,0,0,.262-.043,8.585,8.585,0,0,0,.02-12.791.238.238,0,0,0-.289-.058,1.071,1.071,0,0,1-1.134-.2.422.422,0,0,0-.248-.1q-4.14-.008-8.279,0a.38.38,0,0,0-.23.084,1.117,1.117,0,0,1-1.177.216.288.288,0,0,0-.24.052A8.68,8.68,0,0,0,100.013,227.634Zm12.508,7.586h-7.664A8.357,8.357,0,0,0,112.521,235.22Zm.015-15.448c-1.666-1.221-6.263-1.216-7.677,0Zm-8.958-.516a.692.692,0,1,0,.7.7A.713.713,0,0,0,103.578,219.257Zm10.913.683a.7.7,0,0,0-.706-.683.712.712,0,0,0-.678.716.692.692,0,0,0,1.384-.033Zm-10.9,14.4a.692.692,0,0,0-.024,1.384.712.712,0,0,0,.711-.683A.7.7,0,0,0,103.588,234.341Zm10.216,0a.7.7,0,0,0-.7.692.712.712,0,0,0,.7.693.692.692,0,0,0,0-1.385Z" fill="url(#linear-gradient)"/>
    </g>
  </g>
</svg>
